HIERARCHY
ROOT Hips
{
	OFFSET	0.00	0.00	0.00
	CHANNELS 6 Xposition Yposition Zposition Zrotation Xrotation Yrotation
	JOINT Spine
	{
		OFFSET	 0.00	0.01	 0.00
		CHANNELS 3 Zrotation Xrotation Yrotation
		JOINT Spine1
		{
			OFFSET	 0.00	 2.45913012437421	 0.00
			CHANNELS 3 Zrotation Xrotation Yrotation
            JOINT Neck
            {
                OFFSET	 0.00	 2.48462964506057	 0.00
                CHANNELS 3 Zrotation Xrotation Yrotation
                JOINT Head
                {
                    OFFSET	 0.00	 0.927524780924562	 0.00
                    CHANNELS 3 Zrotation Xrotation Yrotation
                    End Site 
                    {
                        OFFSET	 0.00	 1.14999962169752	 0.00
                    }
                }
            }
			JOINT LeftShoulder
			{
				OFFSET	 0.00	 2.48462964506057	 0.00
				CHANNELS 3 Zrotation Xrotation Yrotation
				JOINT LeftUpArm
				{
					OFFSET	 0.00	 1.24881979654096	 0.00
					CHANNELS 3 Zrotation Xrotation Yrotation
					JOINT LeftForeArm
					{
						OFFSET	 0.00	2.59758046908119	 0.00
						CHANNELS 3 Zrotation Xrotation Yrotation
						JOINT LeftHand
						{
							OFFSET	 0.00	2.45542024364365	 0.00
							CHANNELS 3 Zrotation Xrotation Yrotation
							JOINT LeftHandThumb 
							{
								OFFSET	 0.00	0.00	 0.00
								CHANNELS 3 Zrotation Xrotation Yrotation
								End Site
								{
									OFFSET	 0.00	0.00	1.00000003353624
								}
							}
							JOINT L_Wrist_End 
							{
								OFFSET	 0.00	0.99999967115358	 0.00
								CHANNELS 3 Zrotation Xrotation Yrotation
								End Site 
								{
									OFFSET	 0.00	 0.00	 0.00
								}
							}
						}
					}
				}
			}
			JOINT RightShoulder
			{
				OFFSET	 0.00	 2.48462964506057	 0.00
				CHANNELS 3 Zrotation Xrotation Yrotation
				JOINT RightUpArm
				{
					OFFSET	 0.00	 1.24881979654096	 0.00
					CHANNELS 3 Zrotation Xrotation Yrotation
					JOINT RightForeArm
					{
						OFFSET	 0.00	2.59758046908119	 0.00
						CHANNELS 3 Zrotation Xrotation Yrotation
						JOINT RightHand
						{
							OFFSET	 0.00	2.45542024364365	 0.00
							CHANNELS 3 Zrotation Xrotation Yrotation
							JOINT RightHandThumb 
							{
								OFFSET	 0.00	0.00	 0.00
								CHANNELS 3 Zrotation Xrotation Yrotation
								End Site
								{
									OFFSET	 0.00	0.00	1.00000003353624
								}
							}
							JOINT R_Wrist_End 
							{
								OFFSET	 0.00	0.99999967115358	 0.00
								CHANNELS 3 Zrotation Xrotation Yrotation
								End Site 
								{
									OFFSET	 0.00	 0.00	 0.00
								}
							}
						}
					}
				}
			}
		}
	}
	JOINT LeftUpLeg
	{
		OFFSET	 1.2719394002717	 0.00	 0.00
		CHANNELS 3 Zrotation Xrotation Yrotation
		JOINT LeftLowLeg
		{
			OFFSET	 0.00	-4.3429100912261	 0.00
			CHANNELS 3 Zrotation Xrotation Yrotation
			JOINT LeftFoot
			{
				OFFSET	 0.00	-4.48767017425826	 0.00
				CHANNELS 3 Zrotation Xrotation Yrotation
				JOINT LeftToeBase
                {
                    OFFSET	 0.00	0.00	 1.51507020887566
                    CHANNELS 3 Zrotation Xrotation Yrotation
                    End Site 
                    {
                        OFFSET	 0.00	0.00	 0.75000010571191
                    }
                }
			}
		}
	}
	JOINT RightUpLeg
	{
		OFFSET	 -1.2719393604653	 0.00	 0.00
		CHANNELS 3 Zrotation Xrotation Yrotation
		JOINT RightLowLeg
		{
			OFFSET	 0.00	-4.3429100912261	 0.00
			CHANNELS 3 Zrotation Xrotation Yrotation
			JOINT RightFoot
			{
				OFFSET	 0.00	-4.48767017425826	 0.00
				CHANNELS 3 Zrotation Xrotation Yrotation
				JOINT RightToeBase
                {
                    OFFSET	 0.00	0.00	 1.51507020887566
                    CHANNELS 3 Zrotation Xrotation Yrotation
                    End Site 
                    {
                        OFFSET	 0.00	0.00	 0.749999965609858
                    }
                }   
			}
		}
	}
}
MOTION 
Frames:	16 
Frame Time: 0.02 
  -1.3474600219726562 5.004630126953125 1.0338099670410157 3.32678 15.2773 -358.09 -3.58518 -3.78673 -13.554 -10.9689 27.6808 18.0094 77.6864 75.7115 -72.0066 -164.884 -78.4595 -525.673 -88.51747 -2.70554 379.883 -76.2277 -28.4667 -1.33519 0.0 136.316 0.0 47.7982 -23.3169 13.752 0.0 0.0 0.0 0.0 0.0 0.0 97.34714 -16.9748 -729.921 59.8383 -31.2001 -3.0552 0.0 140.329 0.0 -4.74463 -3.91083 41.6649 0.0 0.0 0.0 0.0 0.0 0.0 -9.36564 -17.1047 -739.786 0.0 12.0149 0.0 -29.4651 31.4765 12.5633 0.0 -26.4312 0.0 22.4398 -42.5493 713.12 0.0 65.505 0.0 39.2713 26.351 -18.0828 0.0 -23.50926 0.0 
  -1.3490299987792969 5.006719970703125 1.0333899688720702 3.26698 15.3005 -358.193 -3.66639 -3.78266 -13.5544 -10.9352 27.5684 17.9976 75.6617 76.1622 -69.8806 -163.66 -78.1942 -524.736 -88.53019 -2.70781 380.016 -76.4451 -28.5012 -1.69598 0.0 136.384 0.0 47.7839 -23.4795 13.6015 0.0 0.0 0.0 0.0 0.0 0.0 97.41883 -16.829 -729.786 59.6033 -31.2172 -3.30022 0.0 140.405 0.0 -3.87499 -4.01316 41.6857 0.0 0.0 0.0 0.0 0.0 0.0 -9.30339 -17.12 -739.962 0.0 12.0206 0.0 -29.4429 31.2989 12.6144 0.0 -26.3373 0.0 22.199 -42.4787 712.595 0.0 65.4588 0.0 39.1689 26.160599 -18.0568 0.0 -23.46689 0.0 
  -1.3524600219726564 5.008380126953125 1.0324600219726563 3.21274 15.1269 -358.235 -3.74444 -3.56042 -13.5619 -10.8929 27.4066 17.9805 73.8063 75.9144 -68.3324 -162.547 -78.3456 -523.392 -88.48961 -2.61409 380.235 -76.7277 -28.4628 -2.0318 0.0 136.386 0.0 47.9554 -23.6948 13.6015 0.0 0.0 0.0 0.0 0.0 0.0 97.45897 -16.6417 -729.731 59.5087 -31.2536 -3.51217 0.0 140.302 0.0 -3.38168 -3.72003 41.5484 0.0 0.0 0.0 0.0 0.0 0.0 -9.23559 -16.9609 -740.113 0.0 12.0408 0.0 -29.4584 31.1966 12.6743 0.0 -26.6558 0.0 21.9177 -42.2557 711.992 0.0 65.4338 0.0 39.1619 25.8905 -18.0459 0.0 -23.30036 0.0 
  -1.3550999450683594 5.009760131835938 1.0337799835205077 3.16526 15.1114 -358.348 -3.76328 -3.57336 -13.5159 -10.9237 27.3568 18.0054 72.1186 75.8123 -66.8375 -161.574 -78.3857 -522.304 -88.46996 -2.56946 380.282 -76.8688 -28.4996 -2.19676 0.0 136.363 0.0 48.0116 -24.2055 13.0089 0.0 0.0 0.0 0.0 0.0 0.0 97.49103 -16.5297 -729.726 59.4711 -31.1985 -3.66023 0.0 140.214 0.0 -2.92963 -3.52852 41.6137 0.0 0.0 0.0 0.0 0.0 0.0 -9.18343 -16.9123 -740.313 0.0 12.0229 0.0 -29.2829 31.0659 12.7338 0.0 -26.3801 0.0 21.7643 -42.1699 711.583 0.0 65.4485 0.0 38.9796 25.5972 -17.991 0.0 -23.21419 0.0 
  -1.3324699401855469 5.0246798706054685 1.0029100036621095 2.63606 18.6279 -359.256 -2.53239 -6.46681 -12.6895 -11.6169 26.5903 17.8226 71.2248 75.9001 -65.9766 -161.446 -78.1326 -522.057 -88.5486 -2.63179 380.129 -76.8613 -28.5584 -2.3298 0.0 136.294 0.0 48.143 -24.6279 12.7919 0.0 0.0 0.0 0.0 0.0 0.0 97.79607 -16.2925 -729.448 59.2819 -31.2159 -3.83038 0.0 140.119 0.0 -2.84229 -3.37627 41.3397 0.0 0.0 0.0 0.0 0.0 0.0 -8.93403 -20.7317 -740.631 0.0 12.3696 0.0 -29.5703 30.7068 13.3415 0.0 -26.3993 0.0 23.6959 -45.4425 714.011 0.0 65.2892 0.0 38.677 26.6681 -18.12 0.0 -23.80302 0.0 
  -1.3344999694824218 5.023720092773438 0.9976570129394531 2.6569 19.0216 -359.397 -2.61442 -6.67847 -12.7055 -11.4991 26.3836 17.7918 69.8675 76.1359 -64.5663 -160.956 -77.8715 -521.691 -88.66488 -2.74062 380.129 -76.7722 -28.6206 -2.19985 0.0 136.236 0.0 48.2417 -25.0144 12.3383 0.0 0.0 0.0 0.0 0.0 0.0 97.68055 -16.3831 -729.372 59.1409 -31.0917 -4.19642 0.0 140.083 0.0 -2.50844 -3.67921 41.8984 0.0 0.0 0.0 0.0 0.0 0.0 -8.99436 -21.2022 -740.903 0.0 12.5036 0.0 -29.1017 30.7278 13.2896 0.0 -26.1462 0.0 23.7866 -45.8713 714.069 0.0 65.449 0.0 38.5125 26.3913 -17.9158 0.0 -23.529541 0.0 
  -1.3361000061035155 5.0239999389648435 0.9945919799804688 2.75027 19.2982 -359.541 -2.68949 -6.80052 -12.704 -11.4906 26.1845 17.7279 69.2482 76.0448 -64.0849 -160.981 -77.6684 -521.436 -88.85516 -2.85257 380.056 -76.5924 -28.7763 -2.04128 0.0 136.2 0.0 48.2769 -25.4039 11.8816 0.0 0.0 0.0 0.0 0.0 0.0 97.58776 -16.554 -729.206 58.9545 -30.9304 -4.67268 0.0 140.038 0.0 -2.40038 -3.30813 42.2769 0.0 0.0 0.0 0.0 0.0 0.0 -9.15362 -21.5096 -740.794 0.0 12.582 0.0 -29.5392 30.6754 13.5309 0.0 -25.984001 0.0 23.8033 -46.2014 714.184 0.0 65.5757 0.0 38.2598 26.318 -17.5673 0.0 -23.90527 0.0 
  -1.3375900268554688 5.022990112304687 0.9939969635009765 2.79098 19.5702 -359.697 -2.65394 -7.01447 -12.6624 -11.5818 26.0904 17.6566 68.5585 75.8364 -63.5962 -160.922 -77.6541 -520.966 -89.043465 -2.96073 379.996 -76.4155 -28.9633 -2.00407 0.0 136.178 0.0 47.974 -25.6788 11.6269 0.0 0.0 0.0 0.0 0.0 0.0 97.39549 -16.845 -728.931 58.8047 -30.7308 -5.20381 0.0 140.048 0.0 -1.93569 -2.80853 42.793 0.0 0.0 0.0 0.0 0.0 0.0 -9.21297 -21.8 -741.065 0.0 12.639 0.0 -29.5216 30.7708 13.6099 0.0 -25.8011 0.0 23.9287 -46.5223 714.331 0.0 65.7413 0.0 37.8311 26.1439 -17.0518 0.0 -23.89118 0.0 
  -1.3413600158691406 5.020419921875 0.9932009887695312 2.82625 19.7012 -359.753 -2.64615 -7.04622 -12.7671 -11.6432 26.046 17.4509 67.3545 76.1824 -62.2646 -160.931 -77.2842 -520.905 -89.32795 -3.41015 379.911 -75.9761 -29.0737 -1.75382 0.0 136.045 0.0 47.6534 -25.7627 11.0516 0.0 0.0 0.0 0.0 0.0 0.0 97.03423 -17.3626 -728.798 58.6347 -30.106 -5.90962 0.0 140.297 0.0 -0.938959 -3.34787 43.2879 0.0 0.0 0.0 0.0 0.0 0.0 -9.27205 -21.9544 -741.226 0.0 12.6841 0.0 -29.2431 30.9986 13.4714 0.0 -26.0732 0.0 23.9545 -46.7561 714.286 0.0 65.9517 0.0 37.3168 25.802101 -16.2926 0.0 -23.97166 0.0 
  -1.3426100158691405 5.019089965820313 0.9920659637451172 2.839 19.999 -359.854 -2.55057 -7.17809 -12.8375 -11.7527 25.9376 17.1908 66.6999 76.2805 -61.629 -161.207 -76.9364 -520.907 -89.74452 -3.91185 379.775 -75.4433 -29.2761 -1.60696 0.0 135.776 0.0 47.2318 -25.4841 10.9338 0.0 0.0 0.0 0.0 0.0 0.0 96.75074 -17.9071 -728.336 58.2913 -29.6349 -6.71436 0.0 140.353 0.0 -0.152101 -2.02005 44.1514 0.0 0.0 0.0 0.0 0.0 0.0 -9.30886 -22.2713 -741.363 0.0 12.73 0.0 -28.9645 31.1435 13.3383 0.0 -25.6357 0.0 24.1192 -47.2003 714.411 0.0 66.2498 0.0 36.5292 25.4651 -15.3372 0.0 -24.28455 0.0 
  -1.3442900085449219 5.016400146484375 0.9903669738769532 2.91945 20.0672 -359.964 -2.48841 -7.07543 -12.9555 -11.9306 25.8255 16.8559 66.3237 76.4248 -61.2428 -161.577 -76.5373 -521.019 -90.1961 -4.51981 379.636 -74.8786 -29.5495 -1.56148 0.0 135.413 0.0 46.7541 -25.101 10.8721 0.0 0.0 0.0 0.0 0.0 0.0 96.4447 -18.5275 -727.793 57.868 -29.1337 -7.69542 0.0 140.611 0.0 0.370856 -0.714187 44.5206 0.0 0.0 0.0 0.0 0.0 0.0 -9.33253 -22.2939 -741.163 0.0 12.5822 0.0 -28.3811 31.5885 12.9632 0.0 -26.0226 0.0 24.1748 -47.5249 714.442 0.0 66.6773 0.0 35.8543 24.96391 -14.3442 0.0 -24.360111 0.0 
  -1.3463099670410157 5.014339904785157 0.9912169647216796 2.87514 20.0978 -360.036 -2.28434 -6.98611 -13.0677 -12.1963 25.7764 16.4514 66.699 76.1844 -61.8499 -162.093 -76.2881 -520.974 -90.63709 -5.28213 379.578 -74.28 -29.6496 -1.61803 0.0 134.88 0.0 46.2784 -24.7336 11.1124 0.0 0.0 0.0 0.0 0.0 0.0 96.02414 -19.156 -727.38 57.6537 -28.4271 -8.56148 0.0 140.643 0.0 1.43537 1.3409 45.4073 0.0 0.0 0.0 0.0 0.0 0.0 -9.26947 -22.2225 -741.379 0.0 12.4264 0.0 -28.562 31.5217 13.0373 0.0 -26.0722 0.0 24.3499 -47.8084 714.462 0.0 67.1376 0.0 35.3025 24.36686 -13.3099 0.0 -24.30516 0.0 
  -1.3476600646972656 5.013179931640625 0.9908999633789063 2.89849 20.1139 -360.168 -2.20926 -6.85788 -13.2436 -12.341 25.7578 16.0975 67.5613 76.0673 -62.8797 -162.492 -75.9312 -520.998 -91.19936 -6.09031 379.338 -73.5884 -29.8446 -1.55723 0.0 133.999 0.0 46.2261 -23.9567 11.405 0.0 0.0 0.0 0.0 0.0 0.0 95.62233 -19.8786 -727.0 57.3448 -27.6221 -9.29574 0.0 141.094 0.0 2.56143 2.22344 45.6182 0.0 0.0 0.0 0.0 0.0 0.0 -9.26905 -22.1847 -741.636 0.0 12.3558 0.0 -28.6725 31.4696 13.2066 0.0 -26.123001 0.0 24.5447 -48.1443 714.604 0.0 67.6985 0.0 34.7514 23.72827 -12.2664 0.0 -23.88176 0.0 
  -1.3532200622558594 5.012309875488281 0.9914790344238281 2.94122 20.1392 -360.178 -2.20511 -6.78765 -13.5182 -12.5108 25.7374 15.6169 69.2305 75.227 -65.2087 -162.731 -76.0822 -520.236 -91.70004 -6.85086 379.246 -73.0647 -29.9799 -1.82617 0.0 133.021 0.0 46.2849 -23.5526 12.3301 0.0 0.0 0.0 0.0 0.0 0.0 95.13928 -20.4211 -726.667 57.259 -26.8646 -9.88869 0.0 141.557 0.0 3.85359 2.98146 46.2089 0.0 0.0 0.0 0.0 0.0 0.0 -9.28201 -22.2029 -741.704 0.0 12.3707 0.0 -28.8371 31.4713 13.2075 0.0 -26.0055 0.0 24.6943 -48.5327 714.71 0.0 68.1853 0.0 34.334 23.25298 -11.3452 0.0 -23.585659 0.0 
  -1.3544599914550781 5.0129000854492185 0.9882360076904297 2.95385 20.045 -360.314 -2.06609 -6.56089 -13.7019 -12.7921 25.7177 15.1562 70.5555 74.7371 -66.9331 -162.954 -76.0783 -519.819 -92.23187 -7.624 379.195 -72.5832 -30.0531 -2.05915 0.0 131.845 0.0 46.7361 -22.9302 13.0489 0.0 0.0 0.0 0.0 0.0 0.0 94.71339 -20.8885 -726.227 57.1246 -26.2147 -10.425 0.0 142.003 0.0 4.91103 4.33807 46.8523 0.0 0.0 0.0 0.0 0.0 0.0 -9.24079 -22.1739 -741.65 0.0 12.4718 0.0 -28.8957 31.3762 13.2834 0.0 -26.0999 0.0 24.9919 -48.8778 715.139 0.0 68.6263 0.0 33.9783 23.15864 -10.5887 0.0 -23.575699 0.0 
  -1.3498899841308594 5.014519958496094 0.984229965209961 3.02802 19.9569 -360.74 -1.86557 -6.33673 -13.6797 -13.171 25.6434 14.8723 73.0329 74.4096 -69.6341 -163.459 -75.9382 -519.942 -92.83865 -8.18988 379.198 -72.1602 -30.1138 -2.39357 0.0 130.665 0.0 47.4839 -22.8964 14.3454 0.0 0.0 0.0 0.0 0.0 0.0 94.26389 -21.4065 -725.928 57.1184 -25.4241 -10.4478 0.0 142.187 0.0 6.72025 6.61936 48.0865 0.0 0.0 0.0 0.0 0.0 0.0 -9.18406 -22.1437 -741.33 0.0 12.5504 0.0 -29.0942 31.1679 13.5152 0.0 -26.33 0.0 25.4736 -49.225 715.988 0.0 68.9797 0.0 33.4881 23.34531 -9.91726 0.0 -23.884861 0.0 
